<?xml version="1.0" encoding="utf-8"?>
<!-- Generator: Adobe Illustrator 22.0.1, SVG Export Plug-In . SVG Version: 6.00 Build 0)  -->
<svg version="1.1" id="Layer_1" xmlns="http://www.w3.org/2000/svg" xmlns:xlink="http://www.w3.org/1999/xlink" x="0px" y="0px"
	 viewBox="0 0 32 32" style="enable-background:new 0 0 32 32;" xml:space="preserve">
<g id="star">
	<path d="M29.1,12.3l-8.5-1.2l-3.8-7.5C16.6,3.2,16.3,3,16,3c-0.3,0-0.6,0.2-0.8,0.7l-3.8,7.5l-8.5,1.2C2.3,12.5,2,12.7,2,13.2
		c0,0.2,0.1,0.5,0.4,0.8l6.2,5.8L7,27.9c0,0.2,0,0.3,0,0.3c0,0.2,0.1,0.4,0.2,0.6C7.3,28.9,7.5,29,7.7,29s0.4-0.1,0.7-0.2l7.6-3.9
		l7.6,3.9c0.2,0.1,0.5,0.2,0.7,0.2s0.4-0.1,0.5-0.2c0.1-0.2,0.2-0.4,0.2-0.6c0-0.1,0-0.3,0-0.3l-1.5-8.2l6.1-5.8
		c0.3-0.3,0.4-0.5,0.4-0.8C30.1,12.7,29.8,12.4,29.1,12.3L29.1,12.3z"/>
</g>
</svg>
