<?xml version="1.0" encoding="utf-8"?>
<svg version="1.1" id="Layer_1" xmlns="http://www.w3.org/2000/svg" xmlns:xlink="http://www.w3.org/1999/xlink" x="0px" y="0px"
	 viewBox="0 0 32 32" style="enable-background:new 0 0 32 32;" xml:space="preserve">
<style type="text/css">
	.st0{fill-rule:evenodd;clip-rule:evenodd;}
</style>
<path class="st0" d="M24.9,16.7l-14.8,14C9.9,30.9,9.7,31,9.4,31c-0.3,0-0.5-0.1-0.7-0.3l-1.6-1.5c-0.2-0.2-0.3-0.4-0.3-0.7
	c0-0.3,0.1-0.5,0.3-0.7L19.6,16L7.1,4.2C6.9,4,6.8,3.8,6.8,3.5c0-0.3,0.1-0.5,0.3-0.7l1.6-1.5C8.9,1.1,9.1,1,9.4,1
	c0.3,0,0.5,0.1,0.7,0.3l14.8,14c0.2,0.2,0.3,0.4,0.3,0.7C25.2,16.3,25.1,16.5,24.9,16.7L24.9,16.7z"/>
</svg>
