<?xml version="1.0" encoding="utf-8"?>
<svg version="1.1" id="Layer_1" xmlns="http://www.w3.org/2000/svg" xmlns:xlink="http://www.w3.org/1999/xlink" x="0px" y="0px"
	 viewBox="0 0 32 32" style="enable-background:new 0 0 32 32;" xml:space="preserve">
<style type="text/css">
	.st0{fill-rule:evenodd;clip-rule:evenodd;}
</style>
<path class="st0" d="M7.1,15.3l14.8-14C22.1,1.1,22.3,1,22.6,1c0.3,0,0.5,0.1,0.7,0.3l1.6,1.5c0.2,0.2,0.3,0.4,0.3,0.7
	c0,0.3-0.1,0.5-0.3,0.7L12.4,16l12.5,11.8c0.2,0.2,0.3,0.4,0.3,0.7c0,0.3-0.1,0.5-0.3,0.7l-1.6,1.5c-0.2,0.2-0.5,0.3-0.7,0.3
	c-0.3,0-0.5-0.1-0.7-0.3l-14.8-14c-0.2-0.2-0.3-0.4-0.3-0.7C6.8,15.7,6.9,15.5,7.1,15.3L7.1,15.3z"/>
</svg>
